<svg width="49" height="49" viewBox="0 0 49 49" fill="none" xmlns="http://www.w3.org/2000/svg">
<path d="M24.5 0C10.9703 0 0 10.9703 0 24.5C0 38.0297 10.9703 49 24.5 49C38.0297 49 49 38.0297 49 24.5C49 10.9703 38.0297 0 24.5 0ZM32.3805 24.8773L20.4367 33.5672C20.3712 33.6142 20.2941 33.6423 20.2137 33.6484C20.1332 33.6544 20.0527 33.6382 19.981 33.6014C19.9092 33.5647 19.8489 33.5089 19.8068 33.4401C19.7647 33.3714 19.7423 33.2924 19.7422 33.2117V15.843C19.7419 15.7622 19.764 15.6829 19.8061 15.6139C19.8481 15.5449 19.9084 15.4889 19.9804 15.4521C20.0523 15.4153 20.133 15.3991 20.2135 15.4053C20.2941 15.4116 20.3713 15.44 20.4367 15.4875L32.3805 24.1719C32.4369 24.2118 32.4829 24.2646 32.5147 24.326C32.5465 24.3874 32.563 24.4555 32.563 24.5246C32.563 24.5937 32.5465 24.6618 32.5147 24.7232C32.4829 24.7846 32.4369 24.8374 32.3805 24.8773Z" fill="#1DB954"/>
</svg>
